<svg xmlns="http://www.w3.org/2000/svg" viewBox="0 0 86.36 73.07"><defs><style>.cls-1{fill:#da1b0c;}.cls-1,.cls-2{fill-rule:evenodd;}.cls-2,.cls-5{fill:#200270;}.cls-3{fill:#fff;}.cls-4{fill:none;stroke:#200270;stroke-miterlimit:2.61;stroke-width:0.5px;}</style></defs><title>logo</title><g id="Layer_2" data-name="Layer 2"><g id="Layer_1-2" data-name="Layer 1"><path class="cls-1" d="M59.84,2.12A17.53,17.53,0,1,0,77.53,19.65,17.61,17.61,0,0,0,59.84,2.12M58.95,0A19.65,19.65,0,1,0,78.78,19.65,19.74,19.74,0,0,0,58.95,0Z"/><path class="cls-1" d="M39.65,2.66A2.3,2.3,0,1,1,37.33,5a2.31,2.31,0,0,1,2.32-2.3"/><path class="cls-2" d="M8.18,44.37H71.12a7.9,7.9,0,1,1,0,15.78H8.18a7.9,7.9,0,1,1,0-15.78"/><path class="cls-3" d="M69.62,52.8v2.26H71.2A7.77,7.77,0,0,0,72.38,55a1.07,1.07,0,0,0,.62-.34,1,1,0,0,0,.24-.72,1.1,1.1,0,0,0-.19-.64,1.05,1.05,0,0,0-.54-.39A5.93,5.93,0,0,0,71,52.8Zm0-3.35v2h1.13q1,0,1.25,0a1.13,1.13,0,0,0,.69-.3.89.89,0,0,0,.25-.66.92.92,0,0,0-.22-.64,1,1,0,0,0-.65-.29q-.26,0-1.47,0ZM67.89,48h3.4a9.69,9.69,0,0,1,1.51.08,2.21,2.21,0,0,1,.89.35,2.16,2.16,0,0,1,.65.71,1.89,1.89,0,0,1,.26,1,2,2,0,0,1-.32,1.09,2,2,0,0,1-.87.74,2.24,2.24,0,0,1,1.2.76A2,2,0,0,1,75,54a2.49,2.49,0,0,1-.27,1.12A2.27,2.27,0,0,1,74,56a2.46,2.46,0,0,1-1.15.4q-.43,0-2.07.06h-2.9Zm-8.6,0H61v4.57A9.5,9.5,0,0,0,61.07,54a1.36,1.36,0,0,0,.53.83,1.84,1.84,0,0,0,1.14.31,1.74,1.74,0,0,0,1.1-.3,1.16,1.16,0,0,0,.45-.73,9.31,9.31,0,0,0,.08-1.43V48h1.72v4.43a11.27,11.27,0,0,1-.14,2.15,2.37,2.37,0,0,1-.51,1.06,2.62,2.62,0,0,1-1,.69,4.39,4.39,0,0,1-1.64.26,4.74,4.74,0,0,1-1.85-.28,2.65,2.65,0,0,1-1-.72,2.31,2.31,0,0,1-.48-.93,10.12,10.12,0,0,1-.17-2.14Zm-7.21,8.44V48.11H53.8v6.95h4.27v1.42Zm-3.19-3.1,1.67.52A3.7,3.7,0,0,1,49.29,56a4,4,0,0,1-5-.48,4.37,4.37,0,0,1-1.09-3.14,4.59,4.59,0,0,1,1.1-3.27,3.78,3.78,0,0,1,2.89-1.16,3.55,3.55,0,0,1,2.54.92,3.31,3.31,0,0,1,.87,1.55l-1.7.4a1.77,1.77,0,0,0-.63-1A1.81,1.81,0,0,0,47,49.36a1.94,1.94,0,0,0-1.54.67,3.28,3.28,0,0,0-.59,2.18,3.5,3.5,0,0,0,.58,2.28,1.89,1.89,0,0,0,1.51.68,1.73,1.73,0,0,0,1.18-.43A2.51,2.51,0,0,0,48.9,53.38ZM33.27,49.47v5.59h1.28a4.66,4.66,0,0,0,1-.08,1.6,1.6,0,0,0,.69-.35,1.79,1.79,0,0,0,.45-.82,5.5,5.5,0,0,0,.17-1.55,5,5,0,0,0-.17-1.5,1.93,1.93,0,0,0-.49-.82,1.64,1.64,0,0,0-.8-.4A7.76,7.76,0,0,0,34,49.47ZM31.55,48H34.7a6.16,6.16,0,0,1,1.62.16A2.83,2.83,0,0,1,37.6,49a3.67,3.67,0,0,1,.81,1.37,6.22,6.22,0,0,1,.28,2,5.5,5.5,0,0,1-.26,1.8,3.68,3.68,0,0,1-.91,1.49,3,3,0,0,1-1.21.67,5.2,5.2,0,0,1-1.52.18H31.55Zm-7.93,8.44V48h6.31v1.43H25.35v1.87h4.27v1.42H25.35v2.3H30.1v1.42Zm-9.93,0V48h2.57l1.54,5.75L19.34,48h2.58v8.44h-1.6V49.84l-1.69,6.64H17L15.3,49.84v6.64ZM5.12,48H6.84v4.57A9.55,9.55,0,0,0,6.91,54a1.37,1.37,0,0,0,.53.83,1.84,1.84,0,0,0,1.14.31,1.74,1.74,0,0,0,1.1-.3,1.16,1.16,0,0,0,.45-.73,9.27,9.27,0,0,0,.08-1.43V48h1.72v4.43a11.29,11.29,0,0,1-.14,2.15,2.37,2.37,0,0,1-.51,1.06,2.62,2.62,0,0,1-1,.69,4.39,4.39,0,0,1-1.64.26,4.75,4.75,0,0,1-1.85-.28,2.65,2.65,0,0,1-1-.72,2.32,2.32,0,0,1-.48-.93,10.13,10.13,0,0,1-.17-2.14Z"/><ellipse class="cls-4" cx="82.28" cy="39.6" rx="3.84" ry="3.8"/><path class="cls-5" d="M83.32,40.17l.85.27a1.89,1.89,0,0,1-.65,1,2.06,2.06,0,0,1-2.57-.24,2.23,2.23,0,0,1-.56-1.6A2.34,2.34,0,0,1,80.95,38a1.93,1.93,0,0,1,1.47-.59,1.81,1.81,0,0,1,1.29.47,1.68,1.68,0,0,1,.44.79l-.87.2a.91.91,0,0,0-.32-.53.92.92,0,0,0-.59-.19,1,1,0,0,0-.78.34,1.67,1.67,0,0,0-.3,1.11,1.78,1.78,0,0,0,.3,1.16,1,1,0,0,0,.77.35.88.88,0,0,0,.6-.22,1.28,1.28,0,0,0,.36-.69"/><path class="cls-1" d="M19.46,2.12A17.53,17.53,0,1,1,1.78,19.65,17.61,17.61,0,0,1,19.46,2.12M20.36,0A19.65,19.65,0,1,1,.53,19.65,19.74,19.74,0,0,1,20.36,0Z"/><path class="cls-1" d="M39.65,1.13A18.52,18.52,0,1,1,21,19.65,18.61,18.61,0,0,1,39.65,1.13m0-1.13A19.65,19.65,0,1,1,19.82,19.65,19.75,19.75,0,0,1,39.65,0Z"/><path class="cls-5" d="M66.63,71.93H63.42v0l.66-.67c1.39-1.4,2.38-2.62,2.38-4.09a2.19,2.19,0,0,0-2.36-2.32,3.45,3.45,0,0,0-2.15.74l.37.88a2.56,2.56,0,0,1,1.54-.63,1.29,1.29,0,0,1,1.38,1.45c0,1.2-.93,2.31-2.62,4l-.84.88V73h4.85Zm-6,0H57.46v0l.66-.67c1.39-1.4,2.38-2.62,2.38-4.09a2.19,2.19,0,0,0-2.36-2.32,3.45,3.45,0,0,0-2.15.74l.37.88a2.56,2.56,0,0,1,1.54-.63,1.29,1.29,0,0,1,1.38,1.45c0,1.2-.93,2.31-2.62,4l-.84.88V73h4.85Zm-8.34-6.2c.9,0,1.36.93,1.36,2.25a1,1,0,0,1-.09.47,1.46,1.46,0,0,1-1.27.75c-.81,0-1.29-.69-1.29-1.64S51.57,65.73,52.33,65.73Zm1.37,3.6A3,3,0,0,1,51.23,72a3.49,3.49,0,0,1-.78,0v1a4.41,4.41,0,0,0,.87-.05c2.36-.25,3.62-2.26,3.62-4.81,0-2-.91-3.36-2.54-3.36a2.65,2.65,0,0,0-2.59,2.81A2.23,2.23,0,0,0,52,70.08a2.09,2.09,0,0,0,1.65-.74ZM47.31,73V65h-1l-1.8,1,.28.9,1.35-.74h0V73Zm-6.67-1H37.46V69.23H40.3v-1H37.46V65.86h3v-1H36.23V73h4.42Zm-5.85-.18a3.63,3.63,0,0,1-1.46.29c-1.67,0-2.71-1.11-2.71-3.11s1.17-3.17,2.73-3.17a3.34,3.34,0,0,1,1.42.3L35,65a3.93,3.93,0,0,0-1.73-.32c-2.25,0-4,1.5-4,4.26,0,2.59,1.52,4.08,3.77,4.08A4.66,4.66,0,0,0,35,72.73Zm-6.73-6.91H26.93v3c0,1.29,0,2.34.13,3.44h0a23,23,0,0,0-1.31-2.68l-2.12-3.76H22.26V73h1.13v-3c0-1.42,0-2.47-.08-3.5h0a26.12,26.12,0,0,0,1.35,2.75L26.83,73h1.24ZM19.34,73h1.23V64.83H19.34Zm-1.62-7.86A3.77,3.77,0,0,0,16,64.72,2.35,2.35,0,0,0,13.38,67c0,1.1.82,1.83,2,2.32,1,.4,1.38.83,1.38,1.52S16.24,72,15.27,72a3.54,3.54,0,0,1-1.76-.48l-.28,1a3.94,3.94,0,0,0,2,.49c1.82,0,2.83-1,2.83-2.37,0-1.11-.63-1.82-1.93-2.4-1-.44-1.48-.78-1.48-1.47,0-.52.4-1.08,1.37-1.08a3,3,0,0,1,1.44.36Z"/></g></g></svg>