<svg xmlns="http://www.w3.org/2000/svg" viewBox="0 0 781.5 199.62"><defs><style>.cls-1{fill:#da251d;}.cls-2{fill:#174e7b;}</style></defs><title>Karnavati</title><g id="Layer_2" data-name="Layer 2"><g id="Layer_1-2" data-name="Layer 1"><path class="cls-1" d="M333,.59h59.1L346.31,59.12l43.67,57H333Z"/><path class="cls-2" d="M600.51,171.62c9.9,4.61,10.86,14.89,6.2,21.84-3,4.51-8,5-12.51,5.23-8.44.48-16.93.14-25.65.14V148.16c9.51,0,19-.51,28.3.18,6.1.45,9.33,4.27,10.08,9.14C608,164.49,606.31,168.23,600.51,171.62Zm-18.12,16.3c3.27,0,6.12,0,9,0,3.09-.06,4.51-2.26,4.51-4.78,0-2.3-.54-5-3.9-5.32-3.12-.26-6.23-.63-9.58-1Zm-.06-20.24c2.34,0,4.31,0,6.28,0,2.47.05,4.81,0,5.2-3.28s-.27-6.07-4.11-6.55a60.53,60.53,0,0,0-7.37-.06Z"/><path class="cls-2" d="M162.3,170.5v28.08H150V147.45c3.65,0,7.35-.15,11,.1.94.06,2.07,1.22,2.65,2.16,4.47,7.21,8.82,14.5,13.22,21.75.68,1.13,1.44,2.2,2.7,4.12V147.73H192v51.1c-3.58,0-7.05.14-10.5-.09a4.2,4.2,0,0,1-2.65-1.94c-5-8-9.89-16.15-14.82-24.23C163.75,172.15,163.39,171.81,162.3,170.5Z"/><path class="cls-2" d="M47.17,147.43,30.61,167l15.88,31.72H30.75l-9.46-19.9c-7.36,4.86-8.78,11.77-7.33,19.82H0V147.72H13.57V166.3l.88.48c2.11-2.68,4.25-5.33,6.32-8,1.86-2.45,4-4.78,5.36-7.48,1.74-3.42,4.27-4.09,7.74-3.87C38,147.62,42.25,147.43,47.17,147.43Z"/><path class="cls-2" d="M101.16,198.57V147.43c2.91,0,5.73-.07,8.54,0,6.46.2,12.91.56,19.36.72,10.19.25,13.55,10.65,11.74,17.88-1.28,5.09-4.43,8.33-10.05,10.09,7.77,6,10.48,14.33,14.27,22.69-4.87,0-9.43.09-14-.09-.76,0-1.71-1.16-2.16-2-2.86-5.32-5.45-10.79-8.49-16-.87-1.49-2.9-2.31-4.39-3.43l-1,.89v20.4Zm14-30.08c4.33-.52,8.94,1.6,11.68-2.62.91-1.4.83-4.72-.21-5.87-3-3.31-7.29-2.62-11.47-2.13Z"/><path class="cls-1" d="M448.41,104.85,414.16,59.2l34.25-44.47Z"/><path class="cls-2" d="M722.22,198.83V147.38c9,.59,18-1.11,26.92,1.38,7.44,2.08,11,7.69,12.67,14.48a40.52,40.52,0,0,1-.43,22.67c-3,9.17-7.87,12.43-17.81,12.87C736.61,199.08,729.62,198.83,722.22,198.83Zm13.12-11.65h5.08c6,0,8.61-2.69,8.64-8.81,0-2.87,0-5.73,0-8.6-.09-8.7-5.08-12.39-13.72-10.06Z"/><path class="cls-2" d="M545.06,147.54h13.65c.08,1.07.24,2.13.24,3.19,0,8.75.26,17.51-.08,26.24-.21,5.49-.92,11-4.29,15.8a15.25,15.25,0,0,1-11.47,6.64,50.15,50.15,0,0,1-14.8-.84c-6.91-1.49-10.94-7-11.51-13.47-1.08-12.35-1-24.81-1.35-37.46h14.27c0,1.28,0,2.6,0,3.91,0,9.5,0,19,0,28.49,0,5.19,2.59,7.85,7.54,7.88s7.73-2.73,7.77-7.85c.08-9.37,0-18.75,0-28.12C545.06,150.61,545.06,149.26,545.06,147.54Z"/><path class="cls-2" d="M335.55,198.69H322.24c-.22-.21-.48-.33-.54-.53-2.53-7.59-2.53-7.59-10.74-7.59h-7.25l-2.23,8H287.61l16.94-50.9a3,3,0,0,1,.79-.24c4.49,0,10-1.46,13.17.58,2.87,1.83,3.41,7.51,4.71,11.58C327.34,172.48,331.34,185.33,335.55,198.69ZM312,160.6l-5.32,18.84h9.9Z"/><path class="cls-2" d="M64.79,147.43c4,0,8-.16,12,.11a4.12,4.12,0,0,1,2.91,2.28c5.56,16.11,11,32.27,16.51,48.73H82c-1-2.52-1.29-6.32-3.16-7.37-2.4-1.35-6-.52-9.15-.59-2,0-4,0-6.08,0l-1.41,8H48.47Zm7.56,14.35-.65-.12-5,17.67H77.31Z"/><path class="cls-2" d="M214,147.53c4.73,0,10.22-1.57,13.41.46,3,1.89,3.67,7.56,5.06,11.67,4.35,12.87,8.56,25.79,12.91,38.94H231.22c-.11-.33-.3-.86-.48-1.39-2.25-6.64-2.25-6.64-9.62-6.64h-8.18l-2.21,8.06h-13Zm12.58,31.92-5-17.77-.63.08-5,17.69Z"/><path class="cls-2" d="M457.11,178.78l11.82,4.07c-1.78,5.09-3.19,10.16-7.91,13.05-2.44,1.5-5.19,3.39-7.84,3.47a67.18,67.18,0,0,1-15.77-1.5c-2.22-.47-4.49-2.61-5.92-4.58-5.2-7.13-7.59-15.14-5.76-24,.78-3.79,2.06-7.47,3-11.24,2-8,15.32-12.65,23.17-11.09,9.21,1.83,13.8,7.7,16.46,16.11-3.28.91-6.29,1.93-9.38,2.49a3.89,3.89,0,0,1-3.14-1.51c-3.08-4.72-5.68-6.44-9.28-5.68a9.82,9.82,0,0,0-7.42,9.5,85.91,85.91,0,0,0,1.07,14.73c.42,3.1,2.65,5,5.83,5.28,3.78.38,7.27-.09,9.09-4.09C455.82,182.26,456.38,180.65,457.11,178.78Z"/><path class="cls-2" d="M274.59,198.46c-.45.19-.56.29-.67.29-4.62,0-10.29,1.63-13.56-.48-3-2-3.66-7.84-5.1-12.08-4.07-12-8-24-12-36-.27-.81-.44-1.65-.74-2.79,3.8,0,7.4.12,11,0,2.17-.1,3,.73,3.56,2.78,2.8,10.29,5.77,20.53,8.67,30.79a9.75,9.75,0,0,0,1.63,3.61l9.62-37h13.85Z"/><path class="cls-2" d="M375,147.64v12.12H361.08v38.78h-14V159.91h-14V147.64Z"/><path class="cls-2" d="M700.88,198.66H687.63V160h-14V147.66h41.17v12.06H700.88Z"/><path class="cls-1" d="M449.11,1c-.67,1.58-1.05,3.38-2,4.71C433.72,23.58,420.3,41.35,407,59.05l41.32,56.81c-7,1.29-7.34,1.08-11.76-4.89q-18.35-24.75-36.81-49.42a26.41,26.41,0,0,0-2.12-2.28C404.8,50,411.91,40.91,419,31.8,427,21.71,434.8,11.58,442.92,1.67c1-1.21,3.53-1.15,5.36-1.67Z"/><path class="cls-2" d="M489.12,186.42h21.61v12.1h-34.4V147.68h12.78Z"/><path class="cls-2" d="M638.24,198.62V147.71h12.82v38.51H672.7v12.4Z"/><path class="cls-2" d="M382.48,198.55v-50.9h12.68v50.9Z"/><path class="cls-1" d="M371.18,76.78l-14-18.45,14.08-17.57c5,5.9,9.95,11.56,14.72,17.33a2.72,2.72,0,0,1-.36,2.52C381,65.92,376.23,71.15,371.18,76.78Z"/><path class="cls-1" d="M432,.45,391.73,51.07l-5-5.69c11.07-13.64,22.63-27.56,33.76-41.81C423.72-.58,427.36.6,432,.45Z"/><path class="cls-1" d="M387.74,71.13l4.56-5.66L429,116c-4.46.86-7.35.17-10.07-3.65C409.69,99.47,400,86.91,390.47,74.24,389.65,73.15,388.67,72.18,387.74,71.13Z"/><path class="cls-1" d="M410.86.44l-29,38.7L376.62,33c7.82-10,15.81-19.76,23.36-29.9C403-.93,406.62.79,410.86.44Z"/><path class="cls-1" d="M377.34,83.79l4.41-5.52,28.16,37.55c-8.5,3.32-11.15-3.45-14.81-8.24C389.15,99.79,383.36,91.87,377.34,83.79Z"/><path class="cls-2" d="M768.56,198.52c0-1.52,0-2.86,0-4.21,0-3,0-5.93,0-9.14H781.5v13.35Z"/></g></g></svg>