<svg width="208" height="74" viewBox="0 0 208 74" fill="none" xmlns="http://www.w3.org/2000/svg">
<path d="M74.2873 37C74.2873 57.38 57.8873 73.9 37.6585 73.9C17.4296 73.9 1.02969 57.38 1.02969 37C1.02969 16.62 17.4296 0.1 37.6585 0.1C57.8873 0.1 74.2873 16.62 74.2873 37Z" fill="white" stroke="black" stroke-width="0.2"/>
<path fill-rule="evenodd" clip-rule="evenodd" d="M37.6576 69.8889C19.6339 69.8889 5.00977 55.1567 5.00977 37C5.00977 18.8432 19.6339 4.11108 37.6576 4.11108C55.6812 4.11108 70.3054 18.8432 70.3054 37C70.3054 55.1567 55.6812 69.8889 37.6576 69.8889ZM37.6576 18.9079C38.4273 20.5878 39.0687 23.9478 39.4535 26.0801C41.1212 24.4001 42.853 23.0432 45.0338 22.074C45.5469 23.4955 45.6752 24.9816 45.4828 26.5324C46.7656 24.3355 47.407 21.8155 45.9318 19.4248C43.6227 20.3294 42.2116 21.2986 40.3515 23.0432C39.9025 20.394 38.8763 16.7109 37.7217 14.9663C36.5672 16.7756 35.5409 20.394 35.0919 23.0432C33.2318 21.2986 31.8207 20.3294 29.5117 19.4248C28.0364 21.8155 28.6778 24.3355 29.9606 26.5324C29.7682 25.0462 29.8965 23.4955 30.4096 22.074C32.5904 23.0432 34.2581 24.4001 35.9899 26.0801C36.2465 23.9478 36.8879 20.5878 37.6576 18.9079ZM30.0889 44.1722C30.0889 44.1722 24.8294 44.6245 20.9809 47.0153C17.1324 49.4706 16.1703 51.0214 16.1703 51.0214L20.4678 51.2152C20.4678 51.2152 21.2375 51.9906 24.2521 52.1844C27.2667 52.3783 28.9985 51.5383 28.9985 51.5383C26.1763 51.7967 22.5844 51.2152 21.4299 49.5998L21.2375 50.0522L20.2112 49.9875C20.2112 49.9875 20.6602 48.5014 23.5465 46.9506C26.4329 45.4645 30.0889 44.1722 30.0889 44.1722ZM37.6576 30.28C40.6722 31.5723 41.2495 32.9292 42.9813 36.7415C42.7889 32.3477 40.9288 29.1816 37.6576 27.5016C34.3864 29.1816 32.5263 32.4123 32.3339 36.7415C34.0657 32.9292 34.6429 31.5723 37.6576 30.28ZM37.6576 52.5721C34.7071 50.246 33.5525 47.7906 31.7566 44.366C32.2697 49.5998 34.3222 53.6706 37.6576 56.1259C40.9929 53.7352 43.0454 49.5998 43.5585 44.366C41.8267 47.7906 40.6081 50.246 37.6576 52.5721ZM31.949 33.5108C31.1793 29.0524 27.9081 24.9816 24.9576 22.9786C23.1617 26.2739 22.841 29.8277 23.739 33.5108C20.7885 32.7354 17.6456 33.64 14.8234 34.8031C16.7476 39.5846 21.1092 44.2368 26.1763 43.9138C21.1092 41.7815 19.3132 39.5199 17.3248 35.7077C19.6981 34.3508 22.3279 34.6738 24.9576 35.5784C26.8819 37.4523 29.1268 38.5507 32.2697 39.1322C29.6399 37.6461 27.3309 36.0954 25.5349 33.64C24.7652 30.9262 24.7652 28.9877 25.7915 26.597C28.5495 28.0185 30.3455 30.7323 31.949 33.5108ZM45.2262 44.1722C45.2262 44.1722 48.8823 45.4645 51.7686 47.0153C54.7191 48.566 55.1039 50.0522 55.1039 50.0522L54.0777 50.1168L53.8853 49.6645C52.6666 51.2798 49.1388 51.8614 46.3166 51.6029C46.3166 51.6029 48.0484 52.4429 51.0631 52.249C54.0777 52.0552 54.8474 51.2798 54.8474 51.2798L59.1448 51.086C59.1448 51.086 58.1827 49.5352 54.3342 47.0799C50.5499 44.6245 45.2262 44.1722 45.2262 44.1722ZM43.3661 33.5108C44.9055 30.7323 46.7656 28.0185 49.5878 26.597C50.6141 28.9877 50.6141 30.8616 49.8444 33.64C47.9843 36.0954 45.7393 37.6461 43.1096 39.1322C46.2525 38.5507 48.4974 37.4523 50.4216 35.5784C53.0514 34.6738 55.6812 34.3508 58.0544 35.7077C56.0661 39.5199 54.2701 41.7815 49.203 43.9138C54.2701 44.3014 58.6317 39.5846 60.5559 34.8031C57.7337 33.7046 54.5908 32.7354 51.6403 33.5108C52.6024 29.7631 52.2176 26.2093 50.4216 22.9786C47.407 24.917 44.1358 29.0524 43.3661 33.5108Z" fill="url(#paint0_linear_5952_689)"/>
<path fill-rule="evenodd" clip-rule="evenodd" d="M88.1602 45.9093C88.2278 44.9213 88.2616 43.8651 88.2954 42.6727C88.3293 41.4802 88.3293 40.0152 88.3293 38.2095C88.3293 35.8927 88.3293 33.9167 88.2954 32.2813C88.2616 30.6459 88.2278 29.2491 88.1602 28.1248C88.3293 28.1588 88.4984 28.1929 88.7013 28.1929C88.8704 28.227 89.0733 28.227 89.31 28.227C89.5468 28.227 89.7835 28.227 89.9864 28.1929C90.1894 28.1588 90.3923 28.1588 90.5614 28.1248C90.4938 28.6699 90.4599 29.3172 90.4261 30.0327C90.3923 30.7482 90.3923 31.4977 90.3923 32.3494V36.3356C90.4261 36.3697 90.4261 36.4038 90.4261 36.4038C90.4599 36.4038 90.4599 36.4038 90.5276 36.4038C90.8996 36.4038 91.8127 35.6542 93.267 34.1552C94.7213 32.6561 96.5138 30.646 98.6106 28.1248C98.7797 28.1588 98.9488 28.1929 99.1517 28.1929C99.3208 28.227 99.5238 28.227 99.7605 28.227C99.9634 28.227 100.166 28.227 100.369 28.1929C100.572 28.1588 100.741 28.1588 100.91 28.1248C100.234 28.6358 98.9488 29.8623 97.0211 31.8043L96.5476 32.2813L92.7597 36.0631C94.0111 37.6303 96.2432 40.2878 99.4899 44.0014C100.234 44.8531 100.775 45.4664 101.147 45.9093C100.877 45.8752 100.606 45.8412 100.335 45.8071C100.065 45.773 99.8281 45.773 99.6252 45.773C99.3885 45.773 99.1517 45.773 98.915 45.8071C98.6783 45.8412 98.4415 45.8752 98.1709 45.9093C97.5622 45.0575 96.9872 44.2739 96.4799 43.6266C95.9726 42.9452 95.533 42.366 95.1271 41.889L92.1509 38.1754C91.7789 37.6984 91.4407 37.3918 91.1702 37.1874C90.8996 37.017 90.629 36.9148 90.3585 36.8808V39.9811C90.3585 41.2417 90.3585 42.332 90.3923 43.2518C90.4261 44.1717 90.4599 45.0576 90.4938 45.8752C90.257 45.8412 90.0541 45.8071 89.8512 45.773C89.6482 45.739 89.4453 45.7389 89.2762 45.7389C89.1071 45.7389 88.9042 45.739 88.7351 45.773C88.566 45.8412 88.3631 45.8412 88.1602 45.9093ZM106.051 35.9268C106.322 35.9609 106.558 35.9609 106.795 35.9949C107.032 35.9949 107.269 36.029 107.472 36.029C109.061 36.029 110.245 35.7224 111.056 35.075C111.868 34.4277 112.274 33.5078 112.274 32.2472C112.274 31.1911 111.902 30.3734 111.192 29.7942C110.448 29.2491 109.399 28.9424 108.013 28.9424C107.742 28.9424 107.472 28.9425 107.167 28.9765C106.863 29.0106 106.525 29.0447 106.153 29.0787C106.119 29.5557 106.085 30.0668 106.051 30.6119C106.017 31.157 106.017 31.7703 106.017 32.4176V35.9268H106.051ZM103.717 45.9434C103.819 45.0576 103.853 44.1036 103.92 43.0134C103.954 41.9572 103.988 40.5262 103.988 38.7205C103.988 36.2675 103.988 34.1552 103.954 32.3835C103.92 30.6119 103.887 29.1809 103.819 28.0566C103.92 28.0566 104.089 28.0907 104.292 28.0907C104.698 28.1248 104.935 28.1248 105.07 28.1248C105.239 28.1248 105.645 28.0907 106.355 28.0566C107.066 28.0226 107.674 28.0226 108.182 28.0226C110.414 28.0226 112.037 28.3292 113.086 28.9765C114.134 29.6239 114.641 30.646 114.641 32.0428C114.641 33.1671 114.269 34.1211 113.559 34.8025C112.849 35.518 111.733 35.9949 110.279 36.3016C111.936 36.4719 113.153 36.9148 113.931 37.6303C114.709 38.3458 115.115 39.3338 115.115 40.6285C115.115 42.366 114.506 43.6948 113.322 44.5806C112.139 45.5005 110.414 45.9434 108.114 45.9434C107.674 45.9434 107.133 45.9093 106.457 45.8752C105.781 45.8412 105.307 45.8071 105.07 45.8071C104.901 45.8071 104.732 45.8071 104.563 45.8412C104.394 45.8752 104.089 45.9093 103.717 45.9434ZM105.95 37.017V39.5723C105.95 40.8669 105.95 41.889 105.983 42.6727C106.017 43.4563 106.051 44.1717 106.119 44.7509C106.423 44.8191 106.727 44.8872 107.032 44.9213C107.336 44.9553 107.607 44.9894 107.877 44.9894C109.399 44.9894 110.583 44.6146 111.462 43.8992C112.342 43.1837 112.781 42.1616 112.781 40.901C112.781 39.5382 112.375 38.5161 111.564 37.8688C110.752 37.2215 109.501 36.8808 107.81 36.8808C107.505 36.8808 106.998 36.9148 106.254 36.983C106.119 37.017 106.017 37.017 105.95 37.017ZM135.001 45.1257C133.784 45.4664 132.6 45.739 131.45 45.9434C130.3 46.1137 129.184 46.2159 128.136 46.2159C125.16 46.2159 122.826 45.3983 121.101 43.797C119.376 42.1957 118.497 40.0152 118.497 37.2555C118.497 34.3596 119.41 32.0769 121.27 30.3393C123.13 28.6018 125.599 27.75 128.744 27.75C129.996 27.75 131.146 27.8863 132.228 28.1588C133.31 28.4314 134.257 28.8402 135.103 29.4194C134.967 29.8283 134.866 30.203 134.764 30.5778C134.663 30.9526 134.595 31.3274 134.494 31.7021C133.817 30.7141 132.938 29.9645 131.957 29.4535C130.943 28.9424 129.759 28.704 128.339 28.704C126.14 28.704 124.415 29.4535 123.063 30.9526C121.744 32.4517 121.067 34.4618 121.067 36.983C121.067 39.4701 121.744 41.4461 123.13 42.9452C124.517 44.4443 126.343 45.1938 128.643 45.1938C129.387 45.1938 130.097 45.1257 130.774 44.9894C131.45 44.8531 132.16 44.6146 132.837 44.308C132.837 44.1377 132.837 43.7629 132.871 43.1496C132.904 42.5704 132.904 42.0935 132.904 41.7187C132.904 41.3099 132.904 40.8669 132.871 40.39C132.837 39.913 132.837 39.2316 132.803 38.3798C133.107 38.4139 133.31 38.448 133.479 38.448C133.615 38.448 133.784 38.482 133.885 38.482C134.02 38.482 134.156 38.448 134.291 38.448C134.426 38.448 134.663 38.4139 134.934 38.3798C134.9 39.2997 134.9 40.1174 134.9 40.7988C134.866 41.4802 134.866 42.0594 134.866 42.4682C134.866 42.9793 134.866 43.4563 134.9 43.8651C134.934 44.3762 134.967 44.7509 135.001 45.1257ZM159.859 44.785C159.216 45.262 158.405 45.6367 157.424 45.8752C156.443 46.1137 155.327 46.25 154.076 46.25C151.201 46.25 148.969 45.4323 147.413 43.831C145.824 42.2297 145.046 39.9471 145.046 37.017C145.046 34.1892 145.925 31.9406 147.65 30.2712C149.375 28.6017 151.708 27.75 154.651 27.75C155.665 27.75 156.646 27.8522 157.593 28.0566C158.54 28.261 159.419 28.5677 160.231 28.9765C160.096 29.4194 159.994 29.8623 159.927 30.2712C159.859 30.68 159.825 31.0889 159.825 31.4977C159.216 30.5437 158.472 29.8283 157.627 29.3854C156.781 28.9424 155.767 28.704 154.583 28.704C152.419 28.704 150.728 29.4194 149.51 30.8844C148.293 32.3495 147.718 34.3937 147.718 37.017C147.718 39.5723 148.326 41.5483 149.51 43.0134C150.694 44.4784 152.317 45.2279 154.38 45.2279C155.361 45.2279 156.308 45.0576 157.289 44.6828C158.236 44.308 159.183 43.7629 160.028 43.0474L159.859 44.785ZM163.85 45.9093C163.884 44.3762 163.918 42.8771 163.951 41.4121C163.985 39.9471 163.985 38.4821 163.985 37.017C163.985 35.3817 163.985 33.8485 163.951 32.4176C163.918 30.9526 163.884 29.5216 163.816 28.0907C164.019 28.1248 164.188 28.1588 164.391 28.1588C164.594 28.1929 164.797 28.1929 165.034 28.1929C165.237 28.1929 165.473 28.1929 165.642 28.1588C165.845 28.1248 166.014 28.1248 166.217 28.0907C166.15 29.7942 166.082 31.4296 166.048 32.9627C166.014 34.5299 165.981 35.9949 165.981 37.3237C165.981 38.7205 165.981 40.0152 166.014 41.2076C166.048 42.4001 166.082 43.5585 166.116 44.6487C166.285 44.6487 166.522 44.6487 166.725 44.6828C166.961 44.6828 167.333 44.6828 167.841 44.6828C168.957 44.6828 169.971 44.6487 170.851 44.5806C171.73 44.5124 172.474 44.4102 173.117 44.2739C173.117 44.3421 173.117 44.4784 173.117 44.6487C173.117 44.8191 173.117 44.9553 173.117 45.0575C173.117 45.1257 173.117 45.262 173.117 45.4323C173.117 45.6027 173.117 45.739 173.117 45.8412C171.595 45.8071 170.343 45.8071 169.329 45.773C168.348 45.773 167.604 45.7389 167.13 45.7389C166.522 45.7389 165.947 45.739 165.372 45.773C164.898 45.8412 164.357 45.8752 163.85 45.9093ZM175.755 28.0907C175.924 28.1248 176.127 28.1588 176.296 28.1588C176.465 28.1929 176.668 28.1929 176.904 28.1929C177.141 28.1929 177.378 28.1929 177.581 28.1588C177.784 28.1248 177.953 28.1248 178.122 28.0907C178.088 30.3052 178.054 32.3154 178.054 34.0529C178.021 35.7905 178.021 36.983 178.021 37.5962C178.021 39.1975 178.122 40.424 178.325 41.2417C178.528 42.0594 178.866 42.7408 179.306 43.32C179.779 43.8992 180.388 44.3421 181.098 44.6487C181.808 44.9553 182.654 45.0916 183.567 45.0916C184.48 45.0916 185.292 44.9213 186.036 44.6146C186.78 44.308 187.389 43.8651 187.828 43.2518C188.302 42.6727 188.606 41.9231 188.809 41.0032C189.012 40.0833 189.08 38.5161 189.08 36.2675C189.08 34.7684 189.08 33.3715 189.046 32.0087C189.012 30.68 189.012 29.3513 188.978 28.0907C189.114 28.1248 189.249 28.1588 189.35 28.1588C189.486 28.1929 189.621 28.1929 189.756 28.1929C189.925 28.1929 190.094 28.1929 190.23 28.1588C190.365 28.1248 190.5 28.1248 190.636 28.0907C190.602 29.1128 190.568 30.0668 190.534 30.9526C190.5 31.8043 190.5 32.4517 190.5 32.8264V33.5078C190.5 36.8126 190.433 39.0953 190.263 40.2878C190.094 41.4802 189.824 42.4342 189.452 43.1156C188.843 44.1377 188.031 44.9213 186.983 45.4323C185.934 45.9434 184.649 46.2159 183.161 46.2159C180.591 46.2159 178.731 45.6027 177.547 44.3421C176.363 43.0815 175.788 41.1054 175.788 38.3798C175.788 38.2776 175.822 37.6303 175.856 36.4378C175.89 35.2454 175.924 34.087 175.924 33.0308C175.924 32.2132 175.89 30.8163 175.822 28.8062C175.755 28.4995 175.755 28.261 175.755 28.0907ZM198.008 35.9268C198.279 35.9609 198.516 35.9609 198.752 35.9949C198.989 35.9949 199.226 36.029 199.429 36.029C201.018 36.029 202.202 35.7224 203.014 35.075C203.825 34.4277 204.231 33.5078 204.231 32.2472C204.231 31.1911 203.859 30.3734 203.149 29.7942C202.405 29.2491 201.357 28.9424 199.97 28.9424C199.699 28.9424 199.429 28.9425 199.124 28.9765C198.82 29.0106 198.482 29.0447 198.11 29.0787C198.076 29.5557 198.042 30.0668 198.008 30.6119C197.974 31.157 197.975 31.7703 197.975 32.4176V35.9268H198.008ZM195.675 45.9434C195.776 45.0576 195.81 44.1036 195.878 43.0134C195.911 41.9572 195.945 40.5262 195.945 38.7205C195.945 36.2675 195.945 34.1552 195.911 32.3835C195.878 30.6119 195.844 29.1809 195.776 28.0566C195.878 28.0566 196.047 28.0907 196.25 28.0907C196.656 28.1248 196.892 28.1248 197.028 28.1248C197.197 28.1248 197.602 28.0907 198.313 28.0566C199.023 28.0226 199.632 28.0226 200.139 28.0226C202.371 28.0226 203.995 28.3292 205.043 28.9765C206.091 29.6239 206.599 30.646 206.599 32.0428C206.599 33.1671 206.227 34.1211 205.516 34.8025C204.806 35.518 203.69 35.9949 202.236 36.3016C203.893 36.4719 205.111 36.9148 205.888 37.6303C206.666 38.3458 207.072 39.3338 207.072 40.6285C207.072 42.366 206.463 43.6948 205.28 44.5806C204.096 45.5005 202.371 45.9434 200.071 45.9434C199.632 45.9434 199.091 45.9093 198.414 45.8752C197.738 45.8412 197.264 45.8071 197.028 45.8071C196.858 45.8071 196.689 45.8071 196.52 45.8412C196.351 45.8752 196.081 45.9093 195.675 45.9434ZM197.941 37.017V39.5723C197.941 40.8669 197.941 41.889 197.975 42.6727C198.008 43.4563 198.042 44.1717 198.11 44.7509C198.414 44.8191 198.719 44.8872 199.023 44.9213C199.327 44.9553 199.598 44.9894 199.868 44.9894C201.39 44.9894 202.574 44.6146 203.453 43.8992C204.333 43.1837 204.772 42.1616 204.772 40.901C204.772 39.5382 204.367 38.5161 203.555 37.8688C202.743 37.2215 201.492 36.8808 199.801 36.8808C199.496 36.8808 198.989 36.9148 198.245 36.983C198.076 37.017 197.974 37.017 197.941 37.017Z" fill="black"/>
<defs>
<linearGradient id="paint0_linear_5952_689" x1="37.6576" y1="4.11108" x2="37.6576" y2="69.8889" gradientUnits="userSpaceOnUse">
<stop stop-color="#0080C3"/>
<stop offset="1" stop-color="#658F45"/>
</linearGradient>
</defs>
</svg>
