<?xml version="1.0" encoding="utf-8"?>
<!-- Generator: Adobe Illustrator 21.0.0, SVG Export Plug-In . SVG Version: 6.00 Build 0)  -->
<svg version="1.1" id="Layer_1" xmlns="http://www.w3.org/2000/svg" xmlns:xlink="http://www.w3.org/1999/xlink" x="0px" y="0px"
	 viewBox="0 0 1080 1080" style="enable-background:new 0 0 1080 1080;" xml:space="preserve">
<style type="text/css">
	.st0{clip-path:url(#SVGID_2_);fill:#562E00;}
	.st1{fill:#562E00;}
	.st2{font-family:'MyriadPro-Regular';}
	.st3{font-size:77.6472px;}
</style>
<g>
	<defs>
		<rect id="SVGID_1_" width="1080" height="1080"/>
	</defs>
	<clipPath id="SVGID_2_">
		<use xlink:href="#SVGID_1_"  style="overflow:visible;"/>
	</clipPath>
	<path class="st0" d="M762.5,532.1L762.5,532.1l-39,93H707l40.2-93h-51.3v-12.4h66.7V532.1z M569.6,573.6L569.6,573.6
		c-75.6,0-136.9-61.3-136.9-136.9c0-75.6,61.3-136.9,136.9-136.9s136.9,61.3,136.9,136.9C706.4,512.4,645.1,573.6,569.6,573.6
		 M606.8,260.8c-128.6,0-232.9,104.3-232.9,232.9c0,128.6,104.3,232.9,232.9,232.9s232.9-104.3,232.9-232.9
		C839.6,365,735.3,260.8,606.8,260.8"/>
	<path class="st0" d="M569.6,338.1c-54.5,0-98.7,44.2-98.7,98.7c0,54.5,44.2,98.7,98.7,98.7c54.5,0,98.7-44.2,98.7-98.7
		C668.2,382.3,624,338.1,569.6,338.1"/>
	<path class="st0" d="M187.2,459.6L187.2,459.6l-0.7,8.7c-3.9-2.3-8.2-3.5-12.9-3.5c-7.2,0-13,2.3-17.4,6.9
		c-4.4,4.6-6.6,10.5-6.6,17.6c0,7.2,2.3,13.1,6.8,17.6c4.5,4.5,10.1,6.8,16.8,6.8c5.7,0,10.2-1,13.6-3l0.5,8.7
		c-3.6,1.5-8.3,2.2-14.2,2.2c-9.9,0-17.9-3-23.9-8.9c-6-5.9-9-13.8-9-23.7c0-9.6,3.1-17.3,9.3-23.2c6.2-5.9,14.1-8.9,23.7-8.9
		C178.5,456.9,183.2,457.8,187.2,459.6 M198,520.5L198,520.5V458h9v54.6h26.2v7.9H198z M291.5,458L291.5,458v36.6
		c0,8.7-2.1,15.4-6.3,20s-10.2,6.9-18,6.9c-7.8,0-13.7-2.3-18-6.9c-4.2-4.6-6.3-11.3-6.3-20V458h9v35.5c0,13.5,5.1,20.2,15.3,20.2
		c10.2,0,15.3-6.7,15.3-20.2V458H291.5z M307,520.5L307,520.5V458h16.9c14.6,0,21.9,5.3,21.9,15.8c0,7.8-4.3,12.7-12.9,14.9v0.2
		c4.4,0.4,7.9,1.9,10.5,4.6c2.7,2.7,4,6.2,4,10.5c0,11.1-7.9,16.7-23.8,16.7H307z M316,492L316,492v21.1h6.7
		c10.2,0,15.3-3.4,15.3-10.1c0-7.3-5.4-11-16.2-11H316z M316,465.3v19.3h4.9c5.3,0,9-0.5,11.3-1.5c3.2-1.5,4.7-4.3,4.7-8.5
		c0-6.2-3.9-9.3-11.6-9.3H316z"/>
</g>
<text transform="matrix(1 0 0 1 262.9316 799.8184)"><tspan x="0" y="0" class="st1 st2 st3">...an u</tspan><tspan x="188" y="0" class="st1 st2 st3">r</tspan><tspan x="213.6" y="0" class="st1 st2 st3">ban escape </tspan></text>
</svg>
