<?xml version="1.0" encoding="utf-8"?>
<!-- Generator: Adobe Illustrator 21.0.0, SVG Export Plug-In . SVG Version: 6.00 Build 0)  -->
<svg version="1.1" id="Layer_1" xmlns="http://www.w3.org/2000/svg" xmlns:xlink="http://www.w3.org/1999/xlink" x="0px" y="0px"
	 viewBox="0 0 718.5 576" style="enable-background:new 0 0 718.5 576;" xml:space="preserve">
<style type="text/css">
	.st0{fill:#562E00;}
	.st1{font-family:'MyriadPro-Regular';}
	.st2{font-size:77.6472px;}
</style>
<g>
	<path class="st0" d="M629.9,279.5L629.9,279.5l-39,93h-16.6l40.2-93h-51.3v-12.4h66.7V279.5z M436.9,321L436.9,321
		c-75.6,0-136.9-61.3-136.9-136.9c0-75.6,61.3-136.9,136.9-136.9s136.9,61.3,136.9,136.9C573.8,259.8,512.5,321,436.9,321
		 M474.1,8.2C345.6,8.2,241.3,112.4,241.3,241c0,128.6,104.3,232.9,232.8,232.9S707,369.6,707,241C707,112.4,602.7,8.2,474.1,8.2"/>
	<path class="st0" d="M436.9,85.5c-54.5,0-98.7,44.2-98.7,98.7c0,54.5,44.2,98.7,98.7,98.7c54.5,0,98.7-44.2,98.7-98.7
		C535.6,129.7,491.4,85.5,436.9,85.5"/>
	<path class="st0" d="M54.6,207L54.6,207l-0.7,8.7c-3.9-2.3-8.2-3.5-12.9-3.5c-7.2,0-13,2.3-17.4,6.9c-4.4,4.6-6.6,10.5-6.6,17.6
		c0,7.2,2.3,13.1,6.8,17.6c4.5,4.5,10.1,6.8,16.8,6.8c5.7,0,10.2-1,13.6-3l0.5,8.7c-3.6,1.5-8.3,2.2-14.2,2.2
		c-9.9,0-17.9-3-23.9-8.9c-6-5.9-9-13.8-9-23.7c0-9.6,3.1-17.3,9.3-23.2c6.2-5.9,14.1-8.9,23.7-8.9C45.9,204.3,50.6,205.2,54.6,207
		 M65.4,267.9L65.4,267.9v-62.5h9V260h26.2v7.9H65.4z M158.9,205.4L158.9,205.4V242c0,8.7-2.1,15.4-6.3,20s-10.2,6.9-18,6.9
		c-7.8,0-13.7-2.3-18-6.9c-4.2-4.6-6.3-11.3-6.3-20v-36.6h9v35.5c0,13.5,5.1,20.2,15.3,20.2c10.2,0,15.3-6.7,15.3-20.2v-35.5H158.9z
		 M174.4,267.9L174.4,267.9v-62.5h16.9c14.6,0,21.9,5.3,21.9,15.8c0,7.8-4.3,12.7-12.9,14.9v0.2c4.4,0.4,7.9,1.9,10.5,4.6
		c2.7,2.7,4,6.2,4,10.5c0,11.1-7.9,16.7-23.8,16.7H174.4z M183.3,239.4L183.3,239.4v21.1h6.7c10.2,0,15.3-3.4,15.3-10.1
		c0-7.3-5.4-11-16.2-11H183.3z M183.3,212.7v19.3h4.9c5.3,0,9-0.5,11.3-1.5c3.2-1.5,4.7-4.3,4.7-8.5c0-6.2-3.9-9.3-11.6-9.3H183.3z"
		/>
	<text transform="matrix(1 0 0 1 130.3209 547.2136)"><tspan x="0" y="0" class="st0 st1 st2">...an u</tspan><tspan x="188" y="0" class="st0 st1 st2">r</tspan><tspan x="213.6" y="0" class="st0 st1 st2">ban escape </tspan></text>
</g>
</svg>
