<svg width="141" height="71" viewBox="0 0 141 71" fill="none" xmlns="http://www.w3.org/2000/svg">
<g clip-path="url(#clip0_3917_27487)">
<path fill-rule="evenodd" clip-rule="evenodd" d="M15.14 0.540159C17.6594 0.536752 20.1399 1.16127 22.3573 2.35727C24.5746 3.55326 26.459 5.28301 27.84 7.39016C26.252 9.81909 25.4062 12.6582 25.4062 15.5602C25.4062 18.4621 26.252 21.3012 27.84 23.7302C27.1584 24.7678 26.3524 25.7182 25.44 26.5602C22.6311 23.9704 18.9505 22.5326 15.13 22.5326C11.3095 22.5326 7.62888 23.9704 4.82001 26.5602C3.2988 25.1603 2.0849 23.4597 1.2552 21.5662C0.425494 19.6727 -0.00192737 17.6275 6.53332e-06 15.5602C0.00787019 13.5798 0.405717 11.6204 1.17083 9.79384C1.93595 7.96726 3.05335 6.30927 4.45923 4.91453C5.86511 3.51979 7.53194 2.41562 9.36455 1.66506C11.1972 0.914507 13.1597 0.532264 15.14 0.540159V0.540159Z" fill="#C79F3B"/>
<path fill-rule="evenodd" clip-rule="evenodd" d="M15.68 55.8099C18.6406 55.7823 21.5269 54.8791 23.9751 53.2142C26.4234 51.5492 28.3241 49.197 29.438 46.4538C30.5519 43.7106 30.829 40.6991 30.2345 37.7987C29.6401 34.8982 28.2005 32.2386 26.0973 30.1548C23.994 28.071 21.3211 26.6562 18.4153 26.0887C15.5095 25.5212 12.5007 25.8263 9.76792 26.9656C7.03518 28.1049 4.70071 30.0275 3.0586 32.4911C1.41648 34.9547 0.540168 37.8492 0.540039 40.8099C0.569104 44.8034 2.17798 48.623 5.015 51.4338C7.85201 54.2446 11.6864 55.8179 15.68 55.8099Z" fill="#C79F3B"/>
<path fill-rule="evenodd" clip-rule="evenodd" d="M43.2501 30.05C47.2524 30.0579 51.0943 28.4777 53.9327 25.6562C56.7712 22.8346 58.3742 19.0022 58.3901 15C58.2887 11.0533 56.6496 7.3023 53.8223 4.54674C50.995 1.79119 47.2031 0.249023 43.2551 0.249023C39.3071 0.249023 35.5153 1.79119 32.688 4.54674C29.8607 7.3023 28.2216 11.0533 28.1201 15C28.1492 18.9935 29.7581 22.8131 32.5951 25.6239C35.4321 28.4347 39.2665 30.008 43.2601 30L43.2501 30.05Z" fill="#C79F3B"/>
<path fill-rule="evenodd" clip-rule="evenodd" d="M43.5201 55C40.999 55.0051 38.5165 54.3813 36.2972 53.1853C34.0779 51.9892 32.192 50.2586 30.8101 48.15C32.3981 45.7211 33.2438 42.882 33.2438 39.98C33.2438 37.078 32.3981 34.2389 30.8101 31.81C31.4926 30.779 32.2985 29.8354 33.2101 29C36.0189 31.5897 39.6995 33.0275 43.5201 33.0275C47.3406 33.0275 51.0212 31.5897 53.8301 29C56.0482 31.0563 57.593 33.7351 58.2615 36.685C58.93 39.6349 58.6912 42.718 57.5762 45.5296C56.4613 48.3413 54.5223 50.7503 52.0139 52.4403C49.5054 54.1304 46.5447 55.0227 43.5201 55V55Z" fill="#19538E"/>
<path d="M82.6801 54.9702H71.8601L59.6001 44.9202V39.0302L71.3001 29.4102H81.1701L66.4301 41.8902L82.6801 54.9702Z" fill="#19538E"/>
<path d="M107.79 55.0002H87.88C86.0753 55.066 84.2881 54.6261 82.72 53.7302C81.4683 53.0184 80.4318 51.982 79.72 50.7302C79.1435 49.7197 78.8242 48.5831 78.79 47.4202V36.5502C78.8145 35.3127 79.239 34.1163 80 33.1402C80.7743 32.0633 81.7529 31.1493 82.88 30.4502C83.7085 29.875 84.6747 29.53 85.68 29.4502H107.68V35.4502H90.44C89.754 35.461 89.0849 35.6655 88.51 36.0402C87.8904 36.4118 87.3556 36.9092 86.94 37.5002C86.5704 37.9697 86.357 38.5432 86.33 39.1402V45.1402C86.3351 45.7319 86.4973 46.3117 86.8 46.8202C87.1289 47.3821 87.593 47.8531 88.15 48.1902C88.7366 48.5494 89.4123 48.7365 90.1 48.7302H107.81L107.79 55.0002Z" fill="#19538E"/>
<path d="M140.62 51.06C140.643 52.07 140.306 53.0553 139.67 53.84C139.349 54.2307 138.939 54.5396 138.475 54.7412C138.011 54.9429 137.505 55.0316 137 55H107.2V48.72H131.11C131.589 48.7001 132.051 48.5401 132.44 48.26C132.669 48.113 132.854 47.9076 132.978 47.665C133.101 47.4225 133.157 47.1515 133.14 46.88C133.138 46.5404 133.033 46.2094 132.84 45.93C132.617 45.6141 132.308 45.3679 131.95 45.22C131.544 45.0406 131.104 44.9487 130.66 44.95H112.57C111.753 44.9632 110.95 44.7373 110.26 44.3C109.635 43.9141 109.102 43.3952 108.7 42.78C108.398 42.3629 108.211 41.8728 108.16 41.36V33.06C108.254 32.152 108.682 31.3112 109.36 30.7C109.75 30.2758 110.228 29.9409 110.759 29.7182C111.291 29.4956 111.864 29.3905 112.44 29.41H139.22V35.48H117.11C116.894 35.476 116.68 35.526 116.488 35.6256C116.296 35.7251 116.132 35.871 116.01 36.05C115.749 36.3922 115.605 36.8096 115.6 37.24C115.635 37.6978 115.834 38.1276 116.16 38.45C116.363 38.6706 116.614 38.8426 116.892 38.9534C117.171 39.0642 117.471 39.1109 117.77 39.09H135.91C136.558 39.0352 137.21 39.1163 137.825 39.3281C138.44 39.5399 139.004 39.8778 139.48 40.32C140.273 41.2081 140.685 42.3712 140.63 43.56L140.62 51.06Z" fill="#19538E"/>
<path d="M7.86022 70.1201L4.86021 65.8601V70.1201H3.22021V60.5601H4.87021V64.8501L7.87021 60.5601H9.87021L6.46021 65.3001L9.95021 70.1201H7.86022Z" fill="#5C6063"/>
<path d="M12.3898 62.8699C12.7219 62.1641 13.2106 61.4924 13.8598 61.0599C14.5475 60.6287 15.3501 60.4169 16.161 60.4526C16.9719 60.4883 17.7527 60.7699 18.3998 61.2599C19.1132 61.8423 19.6214 62.6378 19.8498 63.5299H17.9998C17.8409 63.126 17.566 62.778 17.2098 62.5299C16.8544 62.2846 16.4317 62.1553 15.9998 62.1599C15.5429 62.1532 15.0953 62.2896 14.7198 62.5499C14.3327 62.8281 14.0313 63.2092 13.8498 63.6499C13.4339 64.721 13.4339 65.9089 13.8498 66.98C14.0297 67.4244 14.3312 67.8091 14.7198 68.0899C15.0953 68.3503 15.5429 68.4867 15.9998 68.48C16.423 68.4883 16.8385 68.3661 17.1898 68.1299C17.5444 67.8801 17.8189 67.5327 17.9798 67.1299H19.8798C19.6574 68.025 19.1524 68.8245 18.4398 69.41C17.7907 69.9006 17.0075 70.1817 16.1945 70.2157C15.3815 70.2496 14.5775 70.0348 13.8898 69.5999C13.2423 69.1698 12.7238 68.5719 12.3898 67.87C12.0354 67.0842 11.8521 66.232 11.8521 65.37C11.8521 64.5079 12.0354 63.6557 12.3898 62.8699Z" fill="#5C6063"/>
<path d="M23.7399 69.8697C23.2887 69.6471 22.9106 69.3001 22.6499 68.8697C22.3757 68.4106 22.2338 67.8845 22.2399 67.3497H23.9999C24.0036 67.6931 24.1314 68.0235 24.3599 68.2797C24.4761 68.3957 24.6154 68.4859 24.7688 68.5444C24.9221 68.603 25.086 68.6287 25.2499 68.6197C25.4153 68.6293 25.5808 68.606 25.737 68.5511C25.8933 68.4961 26.037 68.4107 26.1599 68.2997C26.2702 68.1903 26.3565 68.0591 26.4133 67.9145C26.4701 67.7698 26.4962 67.615 26.4899 67.4597C26.5014 67.2078 26.4235 66.9599 26.2699 66.7597C26.1183 66.5758 25.9268 66.4287 25.7099 66.3297C25.4073 66.1945 25.0967 66.0776 24.7799 65.9797C24.3333 65.8336 23.8987 65.653 23.4799 65.4397C23.1297 65.2463 22.834 64.9677 22.6199 64.6297C22.3609 64.1956 22.2357 63.6947 22.2599 63.1897C22.249 62.6722 22.3767 62.1612 22.6299 61.7097C22.8572 61.285 23.2052 60.9371 23.6299 60.7097C24.0999 60.4814 24.6175 60.3683 25.1399 60.3797C25.896 60.3501 26.6354 60.6073 27.2099 61.0997C27.4823 61.3578 27.7004 61.6676 27.8515 62.011C28.0026 62.3545 28.0837 62.7246 28.0899 63.0997H26.2899C26.2819 62.7927 26.1524 62.5014 25.9299 62.2897C25.8028 62.1806 25.6548 62.0986 25.4949 62.0488C25.3349 61.9989 25.1665 61.9822 24.9999 61.9997C24.8584 61.9907 24.7165 62.0119 24.5837 62.0619C24.451 62.1119 24.3304 62.1896 24.2299 62.2897C24.1286 62.4017 24.0507 62.5328 24.0009 62.6754C23.9511 62.8179 23.9304 62.969 23.9399 63.1197C23.9313 63.353 24.0097 63.5811 24.1599 63.7597C24.3098 63.9321 24.4936 64.0717 24.6999 64.1697C24.9962 64.3068 25.3001 64.427 25.6099 64.5297C26.0607 64.6774 26.4988 64.8613 26.9199 65.0797C27.2732 65.277 27.5721 65.5588 27.7899 65.8997C28.0541 66.3321 28.183 66.8336 28.1599 67.3397C28.1653 67.8339 28.0485 68.3216 27.8199 68.7597C27.5862 69.1797 27.2399 69.5261 26.8199 69.7597C26.3422 70.0311 25.7991 70.166 25.2499 70.1497C24.732 70.1711 24.2158 70.0753 23.7399 69.8697V69.8697Z" fill="#5C6063"/>
<path d="M34.9499 62.8499C35.282 62.1441 35.7906 61.4924 36.4399 61.0599C37.1275 60.6287 37.9301 60.4169 38.741 60.4526C39.5519 60.4883 40.3328 60.7699 40.9799 61.2599C41.6933 61.8423 42.2015 62.6378 42.4299 63.5299H40.5299C40.371 63.126 40.0961 62.778 39.7399 62.5299C39.3866 62.2991 38.9718 62.1805 38.5499 62.1899C38.093 62.1832 37.6454 62.3196 37.2699 62.5799C36.8828 62.8581 36.5814 63.2392 36.3999 63.6799C35.984 64.751 35.984 65.9389 36.3999 67.0099C36.5798 67.4544 36.8813 67.8391 37.2699 68.12C37.6454 68.3803 38.093 68.5167 38.5499 68.5099C38.9731 68.5183 39.3886 68.3961 39.7399 68.16C40.0945 67.9101 40.3689 67.5627 40.5299 67.16H42.4299C42.2004 68.0355 41.6999 68.8161 40.9999 69.3899C40.3508 69.8806 39.5675 70.1617 38.7545 70.1957C37.9416 70.2296 37.1376 70.0148 36.4499 69.5799C35.8024 69.1498 35.2839 68.5519 34.9499 67.8499C34.5954 67.0642 34.4121 66.212 34.4121 65.3499C34.4121 64.4879 34.5954 63.6357 34.9499 62.8499Z" fill="#5C6063"/>
<path d="M46.67 68.6001H49.38V70.1201H45V60.5601H46.65L46.67 68.6001Z" fill="#5C6063"/>
<path d="M53.24 60.5601V66.4801C53.1968 67.0234 53.3533 67.5638 53.68 68.0001C53.8329 68.1728 54.0231 68.3085 54.2362 68.3969C54.4493 68.4853 54.6797 68.524 54.91 68.5101C55.1401 68.5225 55.3701 68.4831 55.5829 68.3949C55.7958 68.3066 55.9862 68.1717 56.14 68.0001C56.4597 67.5718 56.6158 67.0433 56.58 66.5101V60.5601H58.24V66.4601C58.2637 67.1735 58.109 67.8815 57.79 68.5201C57.5178 69.0514 57.0975 69.4925 56.58 69.7901C56.0623 70.0735 55.4801 70.2182 54.89 70.2101C54.3061 70.2189 53.7302 70.0741 53.22 69.7901C52.6954 69.4983 52.2704 69.0559 52 68.5201C51.6902 67.8786 51.5393 67.1721 51.56 66.4601V60.5601H53.24Z" fill="#5C6063"/>
<path d="M66.82 65.9998C67.122 66.4448 67.2791 66.9721 67.27 67.5098C67.2814 67.9799 67.1711 68.4449 66.95 68.8598C66.7318 69.2481 66.4052 69.5643 66.01 69.7698C65.562 69.9997 65.0634 70.1132 64.56 70.0998H61V60.5598H64.4C64.8988 60.549 65.3927 60.6588 65.84 60.8798C66.2277 61.0746 66.5482 61.3811 66.76 61.7598C66.9692 62.1397 67.0792 62.5661 67.08 62.9998C67.0995 63.4943 66.9668 63.983 66.7 64.3998C66.458 64.7617 66.1081 65.0382 65.7 65.1898C66.1649 65.303 66.5669 65.5938 66.82 65.9998V65.9998ZM62.66 64.4998H64.17C64.3346 64.5107 64.4998 64.489 64.656 64.4358C64.8122 64.3826 64.9563 64.299 65.08 64.1898C65.1911 64.0731 65.2768 63.9346 65.3319 63.7832C65.3869 63.6318 65.4101 63.4706 65.4 63.3098C65.4097 63.1475 65.3864 62.9849 65.3314 62.8319C65.2764 62.679 65.1908 62.5387 65.08 62.4198C64.9574 62.3084 64.8137 62.2226 64.6574 62.1677C64.5011 62.1127 64.3354 62.0896 64.17 62.0998H62.66V64.4998ZM65.26 68.2198C65.3775 68.0965 65.4684 67.9502 65.5269 67.7902C65.5854 67.6302 65.6103 67.4599 65.6 67.2898C65.6122 67.1155 65.5865 66.9407 65.5247 66.7773C65.4629 66.6139 65.3664 66.4658 65.2419 66.3433C65.1175 66.2207 64.9679 66.1265 64.8036 66.0672C64.6393 66.0079 64.4641 65.9849 64.29 65.9998H62.66V68.5698H64.32C64.4915 68.5791 64.6631 68.5538 64.8246 68.4954C64.9861 68.4369 65.1341 68.3466 65.26 68.2298V68.2198Z" fill="#5C6063"/>
<path d="M80.08 70.12L79.18 69.12C78.8242 69.5027 78.392 69.8064 77.9114 70.0114C77.4308 70.2164 76.9124 70.3181 76.39 70.31C75.8352 70.3228 75.2858 70.1991 74.79 69.95C74.3442 69.727 73.9726 69.3797 73.72 68.95C73.4602 68.479 73.3291 67.9478 73.34 67.41C73.3308 66.8114 73.4902 66.2223 73.8 65.71C74.1315 65.1852 74.6024 64.7628 75.16 64.49C74.9654 64.2238 74.8104 63.9307 74.7 63.62C74.6038 63.3298 74.5565 63.0257 74.56 62.72C74.5534 62.3083 74.6533 61.9018 74.85 61.54C75.0453 61.189 75.3367 60.9011 75.69 60.71C76.0842 60.5028 76.5248 60.3996 76.97 60.41C77.4159 60.3983 77.8561 60.5127 78.24 60.74C78.586 60.947 78.8614 61.2537 79.03 61.62C79.205 62.0016 79.2807 62.4213 79.25 62.84H77.65C77.6739 62.5944 77.6063 62.3487 77.46 62.15C77.3943 62.0714 77.3115 62.0089 77.2179 61.9672C77.1243 61.9256 77.0224 61.9061 76.92 61.91C76.8173 61.9075 76.7152 61.9267 76.6204 61.9663C76.5257 62.0059 76.4403 62.0651 76.37 62.14C76.2966 62.2172 76.2393 62.3082 76.2015 62.4078C76.1637 62.5074 76.1462 62.6135 76.15 62.72C76.1529 62.9581 76.2147 63.1917 76.33 63.4C76.4966 63.6944 76.6909 63.9723 76.91 64.23L79 66.54V66.49V66.44L79.67 65.14H81.39L80.56 66.82C80.4 67.1733 80.23 67.5067 80.05 67.82L82.05 70.11L80.08 70.12ZM78.15 67.9L76.15 65.57C75.815 65.704 75.5272 65.934 75.3226 66.2312C75.1179 66.5283 75.0057 66.8793 75 67.24C74.9979 67.6127 75.1414 67.9715 75.4 68.24C75.5373 68.3805 75.7027 68.4904 75.8853 68.5628C76.0679 68.6352 76.2637 68.6683 76.46 68.66C76.7792 68.6587 77.0946 68.5903 77.3857 68.4594C77.6768 68.3285 77.9372 68.1379 78.15 67.9V67.9Z" fill="#5C6063"/>
<path d="M92.3298 70.1201L90.5098 66.4001H89.7299V70.1201H88.0898V60.5601H91.1798C91.7495 60.559 92.309 60.7109 92.7999 61.0001C93.2292 61.2441 93.5771 61.6093 93.7999 62.0501C94.0304 62.5125 94.1469 63.0234 94.1398 63.5401C94.1491 64.1432 93.986 64.7364 93.6698 65.2501C93.3414 65.7436 92.8432 66.0995 92.2698 66.2501L94.2698 70.1301L92.3298 70.1201ZM89.7398 65.0001H91.1199C91.3042 65.014 91.4894 64.9871 91.6622 64.9215C91.835 64.8558 91.9913 64.7529 92.1199 64.6201C92.3439 64.3359 92.4608 63.9818 92.4498 63.6201C92.4681 63.2573 92.3504 62.9007 92.1199 62.6201C91.9883 62.4925 91.8311 62.3944 91.6586 62.3323C91.4862 62.2702 91.3025 62.2456 91.1199 62.2601H89.7398V65.0001Z" fill="#5C6063"/>
<path d="M98.4801 62.1098V64.5098H101.25V65.9998H98.4801V68.5298H101.6V70.0898H96.8301V60.5498H101.6V62.1098H98.4801Z" fill="#5C6063"/>
<path d="M105.57 69.8697C105.119 69.6471 104.741 69.3001 104.48 68.8697C104.206 68.4106 104.064 67.8845 104.07 67.3497H105.84C105.844 67.6931 105.972 68.0235 106.2 68.2797C106.316 68.3957 106.456 68.4859 106.609 68.5444C106.762 68.603 106.926 68.6287 107.09 68.6197C107.255 68.6293 107.421 68.606 107.577 68.5511C107.733 68.4961 107.877 68.4107 108 68.2997C108.11 68.1903 108.197 68.0591 108.253 67.9145C108.31 67.7698 108.336 67.615 108.33 67.4597C108.341 67.2078 108.264 66.9599 108.11 66.7597C107.958 66.5758 107.767 66.4287 107.55 66.3297C107.247 66.1945 106.937 66.0776 106.62 65.9797C106.173 65.8336 105.739 65.653 105.32 65.4397C104.97 65.2463 104.674 64.9677 104.46 64.6297C104.201 64.1956 104.076 63.6947 104.1 63.1897C104.089 62.6722 104.217 62.1612 104.47 61.7097C104.697 61.285 105.045 60.9371 105.47 60.7097C105.94 60.4814 106.458 60.3683 106.98 60.3797C107.736 60.3501 108.476 60.6073 109.05 61.0997C109.322 61.3578 109.54 61.6676 109.692 62.011C109.843 62.3545 109.924 62.7246 109.93 63.0997H108.11C108.102 62.7927 107.973 62.5014 107.75 62.2897C107.63 62.1803 107.49 62.0957 107.337 62.0408C107.184 61.9859 107.022 61.9617 106.86 61.9697C106.718 61.9607 106.577 61.9819 106.444 62.0319C106.311 62.0819 106.19 62.1596 106.09 62.2597C105.989 62.3717 105.911 62.5028 105.861 62.6454C105.811 62.7879 105.79 62.939 105.8 63.0897C105.791 63.323 105.87 63.5511 106.02 63.7297C106.17 63.9021 106.354 64.0417 106.56 64.1397C106.856 64.2768 107.16 64.397 107.47 64.4997C107.921 64.6474 108.359 64.8313 108.78 65.0497C109.133 65.247 109.432 65.5288 109.65 65.8697C109.914 66.3021 110.043 66.8036 110.02 67.3097C110.025 67.8039 109.909 68.2916 109.68 68.7297C109.446 69.1497 109.1 69.4961 108.68 69.7297C108.202 70.0011 107.659 70.136 107.11 70.1197C106.584 70.1551 106.058 70.0696 105.57 69.8697V69.8697Z" fill="#5C6063"/>
<path d="M114.33 69.58C113.673 69.144 113.144 68.5396 112.8 67.83C112.434 67.0474 112.244 66.194 112.244 65.33C112.244 64.466 112.434 63.6126 112.8 62.83C113.144 62.1203 113.673 61.516 114.33 61.08C114.963 60.669 115.701 60.4502 116.455 60.4502C117.209 60.4502 117.947 60.669 118.58 61.08C119.234 61.5166 119.759 62.121 120.1 62.83C120.463 63.6133 120.652 64.4664 120.652 65.33C120.652 66.1935 120.463 67.0466 120.1 67.83C119.757 68.5407 119.229 69.1455 118.57 69.58C117.938 69.9922 117.2 70.2117 116.445 70.2117C115.69 70.2117 114.952 69.9922 114.32 69.58H114.33ZM117.76 68.11C118.153 67.8274 118.459 67.439 118.64 66.99C118.862 66.4582 118.971 65.8861 118.96 65.31C118.972 64.7337 118.863 64.1613 118.64 63.63C118.457 63.1871 118.152 62.8055 117.76 62.53C117.372 62.2726 116.915 62.14 116.45 62.15C115.982 62.1399 115.521 62.2724 115.13 62.53C114.734 62.8037 114.425 63.1855 114.24 63.63C114.017 64.1613 113.908 64.7337 113.92 65.31C113.909 65.8861 114.018 66.4582 114.24 66.99C114.423 67.4409 114.732 67.8296 115.13 68.11C115.519 68.3728 115.98 68.5091 116.45 68.5C116.917 68.509 117.374 68.3727 117.76 68.11V68.11Z" fill="#5C6063"/>
<path d="M127.31 70.1197L125.49 66.3997H124.71V70.1197H123.06V60.5597H126.15C126.718 60.5416 127.281 60.6763 127.78 60.9497C128.209 61.1937 128.557 61.559 128.78 61.9997C129.011 62.4622 129.127 62.973 129.12 63.4897C129.129 64.0928 128.966 64.686 128.65 65.1997C128.322 65.6933 127.823 66.0491 127.25 66.1997L129.25 70.0797L127.31 70.1197ZM124.72 64.9997H126.1C126.284 65.0136 126.47 64.9868 126.642 64.9211C126.815 64.8554 126.971 64.7525 127.1 64.6197C127.324 64.3355 127.441 63.9815 127.43 63.6197C127.448 63.2569 127.331 62.9004 127.1 62.6197C126.969 62.4921 126.811 62.394 126.639 62.3319C126.466 62.2699 126.283 62.2452 126.1 62.2597H124.72V64.9997Z" fill="#5C6063"/>
<path d="M137.41 60.5601V62.1101H135.22V70.1101H133.57V62.1101H131.38V60.5601H137.41Z" fill="#5C6063"/>
</g>
<defs>
<clipPath id="clip0_3917_27487">
<rect width="140.62" height="70.28" fill="white"/>
</clipPath>
</defs>
</svg>
