<svg width="22" height="22" viewBox="0 0 22 22" fill="none" xmlns="http://www.w3.org/2000/svg">
<path d="M19.7764 0H2.22357C1.63384 0 1.06827 0.234268 0.651269 0.651269C0.234268 1.06827 0 1.63384 0 2.22357V19.7764C0 20.3662 0.234268 20.9317 0.651269 21.3487C1.06827 21.7657 1.63384 22 2.22357 22H19.7764C20.3662 22 20.9317 21.7657 21.3487 21.3487C21.7657 20.9317 22 20.3662 22 19.7764V2.22357C22 1.63384 21.7657 1.06827 21.3487 0.651269C20.9317 0.234268 20.3662 0 19.7764 0ZM20.4286 2.22357V6.28571H17.2857V1.57143H19.7764C19.9494 1.57143 20.1153 1.64014 20.2376 1.76244C20.3599 1.88474 20.4286 2.05061 20.4286 2.22357ZM6.28571 1.57143H15.7143V6.28571H6.28571V1.57143ZM2.22357 1.57143H4.71429V6.28571H1.57143V2.22357C1.57143 2.05061 1.64014 1.88474 1.76244 1.76244C1.88474 1.64014 2.05061 1.57143 2.22357 1.57143ZM19.7764 20.4286H2.22357C2.05061 20.4286 1.88474 20.3599 1.76244 20.2376C1.64014 20.1153 1.57143 19.9494 1.57143 19.7764V7.85714H20.4286V19.7764C20.4286 19.9494 20.3599 20.1153 20.2376 20.2376C20.1153 20.3599 19.9494 20.4286 19.7764 20.4286Z" fill="black"/>
<path d="M5.49997 9.42856H3.92854C3.72015 9.42856 3.5203 9.51134 3.37295 9.65869C3.2256 9.80604 3.14282 10.0059 3.14282 10.2143C3.14282 10.4227 3.2256 10.6225 3.37295 10.7699C3.5203 10.9172 3.72015 11 3.92854 11H5.49997C5.70835 11 5.9082 10.9172 6.05555 10.7699C6.2029 10.6225 6.28568 10.4227 6.28568 10.2143C6.28568 10.0059 6.2029 9.80604 6.05555 9.65869C5.9082 9.51134 5.70835 9.42856 5.49997 9.42856ZM11.7857 9.42856H10.2143C10.0059 9.42856 9.80602 9.51134 9.65867 9.65869C9.51132 9.80604 9.42854 10.0059 9.42854 10.2143C9.42854 10.4227 9.51132 10.6225 9.65867 10.7699C9.80602 10.9172 10.0059 11 10.2143 11H11.7857C11.9941 11 12.1939 10.9172 12.3413 10.7699C12.4886 10.6225 12.5714 10.4227 12.5714 10.2143C12.5714 10.0059 12.4886 9.80604 12.3413 9.65869C12.1939 9.51134 11.9941 9.42856 11.7857 9.42856ZM18.0714 9.42856H16.5C16.2916 9.42856 16.0917 9.51134 15.9444 9.65869C15.797 9.80604 15.7143 10.0059 15.7143 10.2143C15.7143 10.4227 15.797 10.6225 15.9444 10.7699C16.0917 10.9172 16.2916 11 16.5 11H18.0714C18.2798 11 18.4796 10.9172 18.627 10.7699C18.7743 10.6225 18.8571 10.4227 18.8571 10.2143C18.8571 10.0059 18.7743 9.80604 18.627 9.65869C18.4796 9.51134 18.2798 9.42856 18.0714 9.42856ZM5.49997 13.3571H3.92854C3.72015 13.3571 3.5203 13.4399 3.37295 13.5873C3.2256 13.7346 3.14282 13.9345 3.14282 14.1428C3.14282 14.3512 3.2256 14.5511 3.37295 14.6984C3.5203 14.8458 3.72015 14.9286 3.92854 14.9286H5.49997C5.70835 14.9286 5.9082 14.8458 6.05555 14.6984C6.2029 14.5511 6.28568 14.3512 6.28568 14.1428C6.28568 13.9345 6.2029 13.7346 6.05555 13.5873C5.9082 13.4399 5.70835 13.3571 5.49997 13.3571ZM11.7857 13.3571H10.2143C10.0059 13.3571 9.80602 13.4399 9.65867 13.5873C9.51132 13.7346 9.42854 13.9345 9.42854 14.1428C9.42854 14.3512 9.51132 14.5511 9.65867 14.6984C9.80602 14.8458 10.0059 14.9286 10.2143 14.9286H11.7857C11.9941 14.9286 12.1939 14.8458 12.3413 14.6984C12.4886 14.5511 12.5714 14.3512 12.5714 14.1428C12.5714 13.9345 12.4886 13.7346 12.3413 13.5873C12.1939 13.4399 11.9941 13.3571 11.7857 13.3571ZM18.0714 13.3571H16.5C16.2916 13.3571 16.0917 13.4399 15.9444 13.5873C15.797 13.7346 15.7143 13.9345 15.7143 14.1428C15.7143 14.3512 15.797 14.5511 15.9444 14.6984C16.0917 14.8458 16.2916 14.9286 16.5 14.9286H18.0714C18.2798 14.9286 18.4796 14.8458 18.627 14.6984C18.7743 14.5511 18.8571 14.3512 18.8571 14.1428C18.8571 13.9345 18.7743 13.7346 18.627 13.5873C18.4796 13.4399 18.2798 13.3571 18.0714 13.3571ZM5.49997 17.2857H3.92854C3.72015 17.2857 3.5203 17.3685 3.37295 17.5158C3.2256 17.6632 3.14282 17.863 3.14282 18.0714C3.14282 18.2798 3.2256 18.4797 3.37295 18.627C3.5203 18.7744 3.72015 18.8571 3.92854 18.8571H5.49997C5.70835 18.8571 5.9082 18.7744 6.05555 18.627C6.2029 18.4797 6.28568 18.2798 6.28568 18.0714C6.28568 17.863 6.2029 17.6632 6.05555 17.5158C5.9082 17.3685 5.70835 17.2857 5.49997 17.2857ZM11.7857 17.2857H10.2143C10.0059 17.2857 9.80602 17.3685 9.65867 17.5158C9.51132 17.6632 9.42854 17.863 9.42854 18.0714C9.42854 18.2798 9.51132 18.4797 9.65867 18.627C9.80602 18.7744 10.0059 18.8571 10.2143 18.8571H11.7857C11.9941 18.8571 12.1939 18.7744 12.3413 18.627C12.4886 18.4797 12.5714 18.2798 12.5714 18.0714C12.5714 17.863 12.4886 17.6632 12.3413 17.5158C12.1939 17.3685 11.9941 17.2857 11.7857 17.2857ZM18.0714 17.2857H16.5C16.2916 17.2857 16.0917 17.3685 15.9444 17.5158C15.797 17.6632 15.7143 17.863 15.7143 18.0714C15.7143 18.2798 15.797 18.4797 15.9444 18.627C16.0917 18.7744 16.2916 18.8571 16.5 18.8571H18.0714C18.2798 18.8571 18.4796 18.7744 18.627 18.627C18.7743 18.4797 18.8571 18.2798 18.8571 18.0714C18.8571 17.863 18.7743 17.6632 18.627 17.5158C18.4796 17.3685 18.2798 17.2857 18.0714 17.2857Z" fill="black"/>
</svg>
