<svg width="24" height="23" viewBox="0 0 24 23" fill="none" xmlns="http://www.w3.org/2000/svg">
<path d="M12.484 17.6246C12.9172 17.8704 13.4109 18 13.9137 18C14.4166 18 14.9103 17.8704 15.3435 17.6246L22.5683 13.4532C23.0055 13.1975 23.3668 12.8376 23.6175 12.4084C23.8683 11.9792 24 11.495 24 11.0026C24 10.5101 23.8683 10.0259 23.6175 9.59671C23.3668 9.16748 23.0055 8.80765 22.5683 8.55188L15.3435 4.38052C14.9115 4.13151 14.4173 4 13.9138 4C13.4102 4 12.916 4.13151 12.484 4.38052C12.0395 4.62747 11.6692 4.98114 11.4091 5.407C11.149 5.83287 11.0081 6.31638 11 6.81034L11 15.153C11.0006 15.6541 11.138 16.1462 11.3984 16.58C11.6589 17.0138 12.0332 17.374 12.484 17.6246ZM13.1664 6.81034C13.1632 6.67564 13.1977 6.5426 13.2663 6.42517C13.3349 6.30774 13.4351 6.21025 13.5563 6.14292C13.6593 6.08314 13.7773 6.05154 13.8975 6.05154C14.0178 6.05154 14.1357 6.08314 14.2387 6.14292L21.4527 10.3143C21.569 10.386 21.6646 10.4847 21.7309 10.6013C21.7972 10.7179 21.8319 10.8488 21.8319 10.9817C21.8319 11.1146 21.7972 11.2454 21.7309 11.3621C21.6646 11.4787 21.569 11.5774 21.4527 11.6491L14.2387 15.8205C14.134 15.8811 14.0143 15.9135 13.8921 15.9143C13.7746 15.9143 13.6591 15.8856 13.5563 15.8309C13.4334 15.7627 13.3322 15.6636 13.2635 15.5441C13.1948 15.4247 13.1612 15.2895 13.1664 15.153L13.1664 6.81034Z" fill="black"/>
<path d="M1.48395 17.6246C1.91719 17.8704 2.41088 18 2.91375 18C3.41661 18 3.91031 17.8704 4.34355 17.6246L11.5683 13.4532C12.0055 13.1975 12.3668 12.8376 12.6175 12.4084C12.8683 11.9792 13 11.495 13 11.0026C13 10.5101 12.8683 10.0259 12.6175 9.59671C12.3668 9.16748 12.0055 8.80765 11.5683 8.55188L4.34355 4.38052C3.91147 4.13151 3.41733 4 2.91375 4C2.41018 4 1.91603 4.13151 1.48396 4.38052C1.03953 4.62747 0.669205 4.98114 0.409118 5.407C0.149032 5.83287 0.00807292 6.31638 9.78231e-07 6.81034L2.48888e-07 15.153C0.000552383 15.6541 0.13795 16.1462 0.398411 16.58C0.658872 17.0138 1.03324 17.374 1.48395 17.6246ZM2.16636 6.81034C2.16318 6.67564 2.1977 6.5426 2.26631 6.42517C2.33492 6.30774 2.43509 6.21025 2.5563 6.14292C2.65928 6.08314 2.77725 6.05154 2.8975 6.05154C3.01776 6.05154 3.13573 6.08314 3.2387 6.14292L10.4527 10.3143C10.569 10.386 10.6646 10.4847 10.7309 10.6013C10.7972 10.7179 10.8319 10.8488 10.8319 10.9817C10.8319 11.1146 10.7972 11.2454 10.7309 11.3621C10.6646 11.4787 10.569 11.5774 10.4527 11.6491L3.2387 15.8205C3.13398 15.8811 3.01427 15.9135 2.89209 15.9143C2.77463 15.9143 2.65908 15.8856 2.5563 15.8309C2.43343 15.7627 2.3322 15.6636 2.26349 15.5441C2.19478 15.4247 2.1612 15.2895 2.16636 15.153L2.16636 6.81034Z" fill="black"/>
<rect x="2" y="23" width="2" height="23" rx="1" transform="rotate(-180 2 23)" fill="black"/>
</svg>
