<svg width="19" height="15" viewBox="0 0 19 15" fill="none" xmlns="http://www.w3.org/2000/svg">
<path d="M1.86924 8.11455L15.9218 8.11455L11.1496 12.8868C11.0643 12.9702 10.9965 13.0697 10.9499 13.1795C10.9034 13.2892 10.8791 13.4072 10.8784 13.5264C10.8777 13.6457 10.9008 13.7639 10.9461 13.8742C10.9914 13.9845 11.0582 14.0847 11.1425 14.169C11.2269 14.2533 11.3271 14.3201 11.4374 14.3654C11.5477 14.4107 11.6659 14.4337 11.7851 14.433C11.9044 14.4323 12.0223 14.408 12.1321 14.3614C12.2419 14.3149 12.3413 14.247 12.4247 14.1617L18.736 7.85038C18.905 7.6813 19 7.45201 19 7.21294C19 6.97386 18.905 6.74457 18.736 6.57549L12.4247 0.264175C12.3411 0.180289 12.2417 0.113765 12.1322 0.0684278C12.0228 0.023091 11.9055 -0.000163832 11.787 5.5019e-07C11.6087 3.86126e-05 11.4345 0.052938 11.2862 0.152012C11.138 0.251085 11.0225 0.391884 10.9542 0.55661C10.886 0.721335 10.8681 0.90259 10.9029 1.07746C10.9377 1.25233 11.0235 1.41297 11.1496 1.53906L15.9218 6.31132L1.86924 6.31132C1.63012 6.31132 1.40079 6.40631 1.2317 6.5754C1.06262 6.74448 0.967626 6.97381 0.967626 7.21294C0.967626 7.45206 1.06262 7.68139 1.2317 7.85048C1.40079 8.01956 1.63012 8.11455 1.86924 8.11455Z" fill="white"/>
</svg>
