<svg width="24" height="23" viewBox="0 0 24 23" fill="none" xmlns="http://www.w3.org/2000/svg">
<path d="M11.516 5.37542C11.0828 5.12963 10.5891 5 10.0863 5C9.58339 5 9.08969 5.12963 8.65645 5.37542L1.43165 9.54678C0.994546 9.80255 0.633216 10.1624 0.382467 10.5916C0.131718 11.0208 0 11.505 0 11.9974C0 12.4899 0.131718 12.9741 0.382467 13.4033C0.633216 13.8325 0.994546 14.1923 1.43165 14.4481L8.65645 18.6195C9.08853 18.8685 9.58267 19 10.0863 19C10.5898 19 11.084 18.8685 11.516 18.6195C11.9605 18.3725 12.3308 18.0189 12.5909 17.593C12.851 17.1671 12.9919 16.6836 13 16.1897V7.84695C12.9994 7.34589 12.8621 6.85378 12.6016 6.41998C12.3411 5.98618 11.9668 5.62595 11.516 5.37542ZM10.8336 16.1897C10.8368 16.3244 10.8023 16.4574 10.7337 16.5748C10.6651 16.6923 10.5649 16.7897 10.4437 16.8571C10.3407 16.9169 10.2227 16.9485 10.1025 16.9485C9.98225 16.9485 9.86427 16.9169 9.7613 16.8571L2.54733 12.6857C2.43104 12.614 2.33536 12.5153 2.26909 12.3987C2.20282 12.2821 2.16808 12.1512 2.16808 12.0183C2.16808 11.8854 2.20282 11.7546 2.26909 11.6379C2.33536 11.5213 2.43104 11.4226 2.54733 11.3509L9.7613 7.17953C9.86602 7.11894 9.98573 7.08652 10.1079 7.08568C10.2254 7.08565 10.3409 7.11436 10.4437 7.16911C10.5666 7.23728 10.6678 7.33642 10.7365 7.45586C10.8052 7.5753 10.8388 7.71051 10.8336 7.84695V16.1897Z" fill="black"/>
<path d="M22.516 5.37542C22.0828 5.12963 21.5891 5 21.0863 5C20.5834 5 20.0897 5.12963 19.6565 5.37542L12.4317 9.54678C11.9945 9.80255 11.6332 10.1624 11.3825 10.5916C11.1317 11.0208 11 11.505 11 11.9974C11 12.4899 11.1317 12.9741 11.3825 13.4033C11.6332 13.8325 11.9945 14.1923 12.4317 14.4481L19.6565 18.6195C20.0885 18.8685 20.5827 19 21.0863 19C21.5898 19 22.084 18.8685 22.516 18.6195C22.9605 18.3725 23.3308 18.0189 23.5909 17.593C23.851 17.1671 23.9919 16.6836 24 16.1897V7.84695C23.9994 7.34589 23.8621 6.85378 23.6016 6.41998C23.3411 5.98618 22.9668 5.62595 22.516 5.37542ZM21.8336 16.1897C21.8368 16.3244 21.8023 16.4574 21.7337 16.5748C21.6651 16.6923 21.5649 16.7897 21.4437 16.8571C21.3407 16.9169 21.2227 16.9485 21.1025 16.9485C20.9822 16.9485 20.8643 16.9169 20.7613 16.8571L13.5473 12.6857C13.431 12.614 13.3354 12.5153 13.2691 12.3987C13.2028 12.2821 13.1681 12.1512 13.1681 12.0183C13.1681 11.8854 13.2028 11.7546 13.2691 11.6379C13.3354 11.5213 13.431 11.4226 13.5473 11.3509L20.7613 7.17953C20.866 7.11894 20.9857 7.08652 21.1079 7.08568C21.2254 7.08565 21.3409 7.11436 21.4437 7.16911C21.5666 7.23728 21.6678 7.33642 21.7365 7.45586C21.8052 7.5753 21.8388 7.71051 21.8336 7.84695V16.1897Z" fill="black"/>
<rect x="22" width="2" height="23" rx="1" fill="black"/>
</svg>
