<svg width="12" height="23" viewBox="0 0 12 23" fill="none" xmlns="http://www.w3.org/2000/svg">
<path d="M10.6302 5.37542C10.2303 5.12963 9.77457 5 9.31038 5C8.8462 5 8.39048 5.12963 7.99057 5.37542L1.32153 9.54678C0.918043 9.80255 0.584507 10.1624 0.353047 10.5916C0.121586 11.0208 0 11.505 0 11.9974C0 12.4899 0.121586 12.9741 0.353047 13.4033C0.584507 13.8325 0.918043 14.1923 1.32153 14.4481L7.99057 18.6195C8.38941 18.8685 8.84555 19 9.31038 19C9.77522 19 10.2314 18.8685 10.6302 18.6195C11.0404 18.3725 11.3823 18.0189 11.6224 17.593C11.8624 17.1671 11.9925 16.6836 12 16.1897V7.84695C11.9995 7.34589 11.8727 6.85378 11.6322 6.41998C11.3918 5.98618 11.0462 5.62595 10.6302 5.37542ZM10.0003 16.1897C10.0032 16.3244 9.97135 16.4574 9.90802 16.5748C9.84469 16.6923 9.75223 16.7897 9.64034 16.8571C9.54528 16.9169 9.43638 16.9485 9.32538 16.9485C9.21438 16.9485 9.10548 16.9169 9.01043 16.8571L2.35138 12.6857C2.24404 12.614 2.15572 12.5153 2.09454 12.3987C2.03337 12.2821 2.00131 12.1512 2.00131 12.0183C2.00131 11.8854 2.03337 11.7546 2.09454 11.6379C2.15572 11.5213 2.24404 11.4226 2.35138 11.3509L9.01043 7.17953C9.1071 7.11894 9.2176 7.08652 9.33038 7.08568C9.43881 7.08565 9.54546 7.11436 9.64034 7.16911C9.75375 7.23728 9.8472 7.33642 9.91062 7.45586C9.97405 7.5753 10.005 7.71051 10.0003 7.84695V16.1897Z" fill="black"/>
<rect x="10" width="2" height="23" rx="1" fill="black"/>
</svg>
