<svg width="12" height="23" viewBox="0 0 12 23" fill="none" xmlns="http://www.w3.org/2000/svg">
<path d="M1.3698 17.6246C1.76972 17.8704 2.22543 18 2.68962 18C3.1538 18 3.60952 17.8704 4.00943 17.6246L10.6785 13.4532C11.082 13.1975 11.4155 12.8376 11.647 12.4084C11.8784 11.9792 12 11.495 12 11.0026C12 10.5101 11.8784 10.0259 11.647 9.59671C11.4155 9.16748 11.082 8.80765 10.6785 8.55188L4.00943 4.38052C3.61059 4.13151 3.15445 4 2.68962 4C2.22478 4 1.76865 4.13151 1.3698 4.38052C0.959568 4.62747 0.617727 4.98114 0.377648 5.407C0.137569 5.83287 0.00745208 6.31638 9.78231e-07 6.81034L2.48888e-07 15.153C0.000510421 15.6541 0.127339 16.1462 0.367765 16.58C0.60819 17.0138 0.953757 17.374 1.3698 17.6246ZM1.99971 6.81034C1.99678 6.67564 2.02865 6.5426 2.09198 6.42517C2.15531 6.30774 2.24777 6.21025 2.35966 6.14292C2.45472 6.08314 2.56362 6.05154 2.67462 6.05154C2.78562 6.05154 2.89452 6.08314 2.98957 6.14292L9.64862 10.3143C9.75596 10.386 9.84428 10.4847 9.90546 10.6013C9.96663 10.7179 9.99869 10.8488 9.99869 10.9817C9.99869 11.1146 9.96663 11.2454 9.90546 11.3621C9.84428 11.4787 9.75596 11.5774 9.64862 11.6491L2.98957 15.8205C2.8929 15.8811 2.7824 15.9135 2.66962 15.9143C2.56119 15.9143 2.45454 15.8856 2.35966 15.8309C2.24625 15.7627 2.1528 15.6636 2.08938 15.5441C2.02595 15.4247 1.99495 15.2895 1.99971 15.153L1.99971 6.81034Z" fill="black"/>
<rect x="2" y="23" width="2" height="23" rx="1" transform="rotate(-180 2 23)" fill="black"/>
</svg>
